<?xml version="1.0" encoding="UTF-8" standalone="no"?>
<!-- Created with Inkscape (http://www.inkscape.org/) -->

<svg
   width="31.71821mm"
   height="8.7524166mm"
   viewBox="0 0 31.71821 8.7524166"
   version="1.1"
   id="svg5"
   inkscape:version="1.1.2 (0a00cf5339, 2022-02-04)"
   sodipodi:docname="navbar-logo.svg"
   xmlns:inkscape="http://www.inkscape.org/namespaces/inkscape"
   xmlns:sodipodi="http://sodipodi.sourceforge.net/DTD/sodipodi-0.dtd"
   xmlns="http://www.w3.org/2000/svg"
   xmlns:svg="http://www.w3.org/2000/svg">
  <sodipodi:namedview
     id="namedview7"
     pagecolor="#ffffff"
     bordercolor="#666666"
     borderopacity="1.0"
     inkscape:pageshadow="2"
     inkscape:pageopacity="0.0"
     inkscape:pagecheckerboard="0"
     inkscape:document-units="mm"
     showgrid="false"
     fit-margin-top="0"
     fit-margin-left="0"
     fit-margin-right="0"
     fit-margin-bottom="0"
     inkscape:zoom="5.1241863"
     inkscape:cx="95.332209"
     inkscape:cy="44.104563"
     inkscape:window-width="3436"
     inkscape:window-height="1407"
     inkscape:window-x="2256"
     inkscape:window-y="29"
     inkscape:window-maximized="1"
     inkscape:current-layer="text6440" />
  <defs
     id="defs2">
    <rect
       x="163.30183"
       y="241.44267"
       width="150.13283"
       height="75.335228"
       id="rect6442" />
    <rect
       x="540.72345"
       y="315"
       width="125.87021"
       height="177.11711"
       id="rect2696" />
  </defs>
  <g
     inkscape:label="Layer 1"
     inkscape:groupmode="layer"
     id="layer1"
     transform="translate(-44.858181,-65.350491)">
    <text
       xml:space="preserve"
       transform="scale(0.26458333)"
       id="text2694"
       style="font-style:normal;font-weight:normal;font-size:40px;line-height:1.25;font-family:sans-serif;white-space:pre;shape-inside:url(#rect2696);fill:#000000;fill-opacity:1;stroke:none" />
    <g
       aria-label="DL4KG"
       transform="scale(0.26458333)"
       id="text6440"
       style="font-size:40px;line-height:1.25;white-space:pre;shape-inside:url(#rect6442)">
      <path
         d="m 170.02273,274.75398 q 0.6,-1.32 1.44,-3.4 0.84,-2.08 1.76,-4.48 0.92,-2.44 1.88,-4.96 0.96,-2.56 1.8,-4.84 0.84,-2.28 1.44,-4.08 0.64,-1.8 0.92,-2.76 -2.52,1.04 -4.32,3.16 -1.8,2.12 -2.72,5.32 -0.92,-0.32 -1.68,-1.12 -0.76,-0.84 -1,-2.08 0.4,-1.84 1.48,-3.36 1.12,-1.52 2.8,-2.6 1.68,-1.08 3.88,-1.64 2.2,-0.6 4.72,-0.6 3.2,0 5.88,0.96 2.68,0.92 4.6,2.6 1.92,1.68 3,4.04 1.08,2.36 1.08,5.24 0,3.92 -1.44,7.48 -1.44,3.56 -3.92,6.28 -2.44,2.72 -5.68,4.32 -3.24,1.64 -6.8,1.64 -3.28,0 -5.64,-1.32 -2.32,-1.28 -3.48,-3.8 z m 14.12,-25.44 q -2,0 -3.8,0.56 1.76,0.64 2.92,1.36 1.16,0.68 1.6,1.08 -0.32,0.44 -0.96,1.56 -0.6,1.12 -1.44,2.72 -0.8,1.6 -1.72,3.52 -0.92,1.88 -1.8,3.88 -2.28,5.08 -3.32,8 -1,2.92 -1,4.04 0.56,0.2 1.36,0.28 0.8,0.08 1.72,0.08 3.24,0 6.12,-1.48 2.92,-1.52 5.08,-4.04 2.2,-2.52 3.44,-5.84 1.28,-3.36 1.28,-7.04 0,-4.12 -2.56,-6.4 -2.56,-2.28 -6.92,-2.28 z"
         style="font-family:'Kaushan Script';-inkscape-font-specification:'Kaushan Script, Normal';fill:#fed136"
         id="path13216" />
      <path
         d="m 213.34273,274.55398 q 1,1.72 1,3.32 0,0.36 -0.08,0.64 -0.04,0.32 -0.12,0.64 -0.68,-0.08 -1.44,-0.12 -0.72,-0.04 -1.52,-0.04 -0.96,0 -1.96,0.04 -0.96,0.08 -2.16,0.2 -1.2,0.12 -2.68,0.32 -1.48,0.2 -3.44,0.52 -0.92,-0.32 -1.84,-1.28 -0.92,-0.92 -1.72,-2.24 0.4,-0.88 1,-2.16 0.6,-1.32 1.4,-3.16 0.8,-1.88 1.76,-4.36 1,-2.52 2.12,-5.8 0.72,-2.16 1.24,-3.8 0.52,-1.64 0.92,-3.16 0.44,-1.56 0.84,-3.24 0.4,-1.68 0.88,-3.88 1.6,0.32 2.76,1.2 1.2,0.84 2.28,2.44 -0.32,0.52 -0.84,1.68 -0.52,1.16 -1.24,2.84 -0.68,1.64 -1.52,3.76 -0.84,2.08 -1.76,4.48 -0.88,2.36 -1.72,4.44 -0.84,2.08 -1.52,3.76 -0.64,1.68 -1.04,2.88 -0.4,1.2 -0.4,1.8 0.64,-0.04 1.16,-0.08 0.52,-0.04 1.08,-0.12 0.56,-0.12 1.2,-0.24 0.68,-0.16 1.6,-0.4 0.8,-0.2 1.48,-0.32 0.68,-0.16 1.32,-0.24 0.68,-0.12 1.36,-0.16 0.72,-0.08 1.6,-0.16 z"
         style="font-family:'Kaushan Script';-inkscape-font-specification:'Kaushan Script, Normal';fill:#fed136"
         id="path13218" />
      <path
         d="m 236.78262,249.31398 q 1.2,0.28 2.44,0.92 1.28,0.6 1.96,1.64 -2.12,2.92 -3.96,6.04 -1.84,3.12 -3.52,6.44 l 1.96,-0.4 q 0.36,0.4 0.4,0.88 l -3.16,1.16 q -1.44,2.96 -2.52,5.96 -1.08,2.96 -1.76,6.12 -1.2,-0.04 -2.32,-0.32 -1.12,-0.24 -1.96,-1.16 0.72,-2.4 1.6,-4.68 0.88,-2.32 1.92,-4.64 -0.76,0.08 -1.76,0.2 -0.96,0.08 -1.76,0.08 -1.08,0 -2.24,-0.08 -1.16,-0.12 -2.24,-0.4 -1.08,-0.32 -2.04,-0.84 -0.96,-0.52 -1.68,-1.4 3.16,-3.6 5.84,-7.8 2.68,-4.2 4.72,-8.6 1.4,0.44 2.76,1.08 1.4,0.64 2.56,1.6 -1.36,1.56 -2.92,3.4 -1.52,1.8 -3.04,3.6 -1.48,1.8 -2.8,3.44 -1.28,1.64 -2.16,2.88 1.04,0.44 2.12,0.64 1.12,0.16 2.24,0.16 0.76,0 1.68,-0.04 0.96,-0.04 1.72,-0.12 1.96,-4.08 3.92,-7.96 1.96,-3.92 4,-7.8 z"
         style="font-family:'Kaushan Script';-inkscape-font-specification:'Kaushan Script, Normal';fill:#fed136"
         id="path13220" />
      <path
         d="m 248.14261,264.15398 q 2.48,-3.68 4.88,-6.76 2.44,-3.12 4.64,-5.36 2.2,-2.24 4.04,-3.48 1.84,-1.24 3.2,-1.24 0.52,0 1.12,0.4 0.64,0.4 1.16,1.04 0.56,0.64 0.92,1.4 0.36,0.72 0.36,1.4 -2.48,0.8 -4.88,2.12 -2.36,1.28 -4.56,3 -2.16,1.68 -4.16,3.76 -1.96,2.08 -3.56,4.44 0.64,1.64 1.56,3.52 0.96,1.84 2.08,3.6 1.12,1.72 2.4,3.2 1.28,1.48 2.6,2.36 -0.2,0.44 -0.68,0.84 -0.48,0.4 -1.04,0.72 -0.56,0.36 -1.2,0.56 -0.6,0.2 -1.12,0.2 -1.04,0 -1.92,-1 -0.88,-0.96 -1.8,-2.92 -0.88,-2 -1.88,-4.92 -0.96,-2.96 -2.16,-6.88 z m -6.04,15.92 q -1.52,-0.36 -2.52,-1.28 -1,-0.88 -1.84,-2.24 0.36,-0.76 0.84,-2 0.52,-1.24 1.24,-3.04 0.72,-1.84 1.72,-4.36 1,-2.56 2.32,-5.96 0.84,-2.16 1.36,-3.64 0.56,-1.48 0.92,-2.88 0.4,-1.44 0.76,-3.16 0.36,-1.72 0.84,-4.36 1.68,0.32 3.04,1.48 1.4,1.16 2.4,2.8 -0.44,0.56 -1.04,1.72 -0.56,1.12 -1.28,2.72 -0.72,1.6 -1.6,3.56 -0.88,1.96 -1.84,4.16 -2.16,4.8 -3.4,8.8 -1.24,3.96 -1.92,7.68 z"
         style="font-family:'Kaushan Script';-inkscape-font-specification:'Kaushan Script, Normal';fill:#fed136"
         id="path13222" />
      <path
         d="m 286.02259,264.11398 q 1.04,0 1.64,0.72 0.6,0.72 0.6,2 0,0.32 -0.04,0.68 -0.04,0.32 -0.12,0.56 -0.84,-0.2 -1.84,-0.24 -0.24,1.76 -1.28,3.72 -1.04,1.92 -2.52,3.64 -1.48,1.68 -3.24,2.96 -1.76,1.28 -3.48,1.72 -5.36,-0.12 -7.84,-2.8 -2.44,-2.64 -2.44,-8.28 0,-4.12 1.52,-7.96 1.52,-3.88 4.04,-6.88 2.52,-3 5.76,-4.8 3.28,-1.84 6.8,-1.84 2.76,0 4.28,1.16 1.56,1.16 1.56,3.28 0,1.4 -0.68,2.6 -0.64,1.2 -2.16,2.6 -0.92,-0.28 -1.6,-0.96 -0.68,-0.72 -0.84,-1.64 1.36,-1 1.92,-1.84 0.56,-0.84 0.56,-2 0,-1.84 -2.2,-1.84 -1.8,0 -3.88,1.36 -2.04,1.32 -4.12,3.84 -2.96,3.56 -4.32,7.36 -1.36,3.76 -1.36,8.48 0,1.76 0.36,3.2 0.36,1.44 0.96,2.52 0.6,1.08 1.4,1.72 0.84,0.64 1.8,0.72 1.28,-0.28 2.56,-1.28 1.28,-1.04 2.32,-2.4 1.08,-1.4 1.8,-2.96 0.76,-1.6 0.92,-3.04 -1.12,0.24 -2.16,0.48 -1,0.2 -1.92,0.2 -1.2,0 -2.12,-0.6 -0.88,-0.6 -1.2,-1.64 0.72,-0.4 2.08,-0.84 1.4,-0.44 2.96,-0.8 1.56,-0.4 3.04,-0.64 1.52,-0.24 2.48,-0.24 z"
         style="font-family:'Kaushan Script';-inkscape-font-specification:'Kaushan Script, Normal';fill:#fed136"
         id="path13224" />
    </g>
  </g>
</svg>
